<?xml version="1.0" encoding="UTF-8"?><svg id="Lager_1" xmlns="http://www.w3.org/2000/svg" viewBox="0 0 92 106.5"><polygon points="17.1 105.5 .6 22.5 91.4 22.5 75.1 106 17.1 105.5" style="fill:#e6e6e6;"/><path d="M90.8,23l-8,41.1-8.1,41.4-28.6-.2-28.6-.2-8.2-41.2L1.2,23h89.6M92,22H0l16.7,84c19.6.2,39.2.3,58.8.5,5.5-28.2,11-56.3,16.5-84.5h0Z"/><polygon points="1.5 19.5 20 5.5 73.9 5.5 90.6 19.5 1.5 19.5" style="fill:#e6e6e6;"/><path d="M73.7,6l8.7,7.3,6.8,5.7H3L20.2,6h53.5M74.1,5H19.9L0,20h92l-17.9-15h0Z"/><line x1="34.5" y1="5.5" x2="34.5" y2=".5" style="fill:none; stroke:#000; stroke-miterlimit:10;"/><line x1="58.5" y1="5.5" x2="58.5" y2=".5" style="fill:none; stroke:#000; stroke-miterlimit:10;"/><line x1="34.5" y1=".5" x2="58.5" y2=".5" style="fill:none; stroke:#000; stroke-miterlimit:10;"/><line x1="18.5" y1="33.5" x2="29.5" y2="97.5" style="fill:none; stroke:#000; stroke-miterlimit:10; stroke-width:3px;"/><line x1="46.5" y1="30" x2="46.5" y2="97" style="fill:none; stroke:#000; stroke-miterlimit:10; stroke-width:3px;"/><line x1="73.5" y1="32.5" x2="63.5" y2="97.5" style="fill:none; stroke:#000; stroke-miterlimit:10; stroke-width:3px;"/></svg>