<?xml version="1.0" encoding="UTF-8"?><svg id="Lager_1" xmlns="http://www.w3.org/2000/svg" viewBox="0 0 92 123.8"><polygon points="17.1 122.8 .6 39.8 91.4 39.8 75.1 123.3 17.1 122.8" style="fill:#e6e6e6;"/><path d="M90.8,40.3l-8,41.1-8.1,41.4-28.6-.2-28.6-.2-8.2-41.2L1.2,40.3h89.6M92,39.3H0l16.7,84c19.6.2,39.2.3,58.8.5,5.5-28.2,11-56.3,16.5-84.5h0Z"/><polygon points="14.8 16.7 66.2 .7 86.4 9.1 1.3 35.6 14.8 16.7" style="fill:#e6e6e6;"/><path d="M66.2,1.2l18.7,7.8L2.5,34.7l5.1-7.2,7.4-10.3L66.2,1.2M66.3.1C49,5.5,31.8,10.9,14.5,16.3c-4.8,6.7-9.7,13.5-14.5,20.2L87.8,9.1,66.3.1h0Z"/><line x1="28.6" y1="12.4" x2="27.1" y2="7.6" style="fill:none; stroke:#000; stroke-miterlimit:10;"/><line x1="51.5" y1="5.3" x2="50.1" y2=".5" style="fill:none; stroke:#000; stroke-miterlimit:10;"/><line x1="27.1" y1="7.6" x2="50.1" y2=".5" style="fill:none; stroke:#000; stroke-miterlimit:10;"/><line x1="18.5" y1="50.8" x2="29.5" y2="114.8" style="fill:none; stroke:#000; stroke-miterlimit:10; stroke-width:3px;"/><line x1="46.5" y1="47.3" x2="46.5" y2="114.3" style="fill:none; stroke:#000; stroke-miterlimit:10; stroke-width:3px;"/><line x1="73.5" y1="49.8" x2="63.5" y2="114.8" style="fill:none; stroke:#000; stroke-miterlimit:10; stroke-width:3px;"/></svg>